<svg version="1.1" viewBox="0.0 0.0 960.0 960.0" fill="none" stroke="none" stroke-linecap="square" stroke-miterlimit="10" xmlns:xlink="http://www.w3.org/1999/xlink" xmlns="http://www.w3.org/2000/svg"><clipPath id="p.0"><path d="m0 0l960.0 0l0 960.0l-960.0 0l0 -960.0z" clip-rule="nonzero"/></clipPath><g clip-path="url(#p.0)"><path fill="#000000" fill-opacity="0.0" d="m0 0l960.0 0l0 960.0l-960.0 0z" fill-rule="evenodd"/><path fill="#000000" d="m0 282.2382l0 0c0 -54.612045 44.271816 -98.883865 98.883865 -98.883865l762.2323 0c26.225586 0 51.377136 10.418091 69.92145 28.962418c18.544312 18.544327 28.962402 43.69583 28.962402 69.92145l0 395.5236c0 54.61206 -44.27179 98.88391 -98.88385 98.88391l-762.2323 0c-54.61205 0 -98.883865 -44.27185 -98.883865 -98.88391z" fill-rule="evenodd"/><path fill="#ffffff" d="m247.36835 321.34372l208.53125 129.0625l0 60.265625l-207.73438 129.06247l-38.140625 -57.328125l173.32812 -101.87497l-173.32812 -98.65625l37.34375 -60.53125z" fill-rule="nonzero"/><path fill="#ffffff" d="m526.0 602.0l266.01575 0l0 57.984253l-266.01575 0z" fill-rule="evenodd"/><path stroke="#ffffff" stroke-width="1.0" stroke-linejoin="round" stroke-linecap="butt" d="m526.0 602.0l266.01575 0l0 57.984253l-266.01575 0z" fill-rule="evenodd"/></g></svg>